HIERARCHY
ROOT Hips
{
	OFFSET 0.000000 0.000000 0.000000
	CHANNELS 6 Xposition Yposition Zposition Xrotation Yrotation Zrotation
	JOINT LeftUpLeg_virtual
	{
		OFFSET 0.000000 0.000000 0.000000
		CHANNELS 3 Xrotation Yrotation Zrotation
		JOINT LeftUpLeg
		{
			OFFSET 15.427100 -6.655098 0.678600
			CHANNELS 3 Xrotation Yrotation Zrotation
			JOINT LeftLeg
			{
				OFFSET 4.081073 -39.591068 13.024000
				CHANNELS 3 Xrotation Yrotation Zrotation
				JOINT LeftFoot
				{
					OFFSET -4.081074 -37.707932 -15.979700
					CHANNELS 3 Xrotation Yrotation Zrotation
					JOINT LeftToeBase
					{
						OFFSET 5.346399 -15.068900 20.645000
						CHANNELS 3 Xrotation Yrotation Zrotation
						JOINT LeftToe_End
						{
							OFFSET 2.754700 0.931300 11.300900
							CHANNELS 3 Xrotation Yrotation Zrotation
							End Site
							{
								OFFSET 0 0 0
							}
						}
					}
				}
			}
		}
	}
	JOINT RightUpLeg_virtual
	{
		OFFSET 0.000000 0.000000 0.000000
		CHANNELS 3 Xrotation Yrotation Zrotation
		JOINT RightUpLeg
		{
			OFFSET -15.569500 -6.655098 0.678600
			CHANNELS 3 Xrotation Yrotation Zrotation
			JOINT RightLeg
			{
				OFFSET -4.081825 -39.591045 13.023800
				CHANNELS 3 Xrotation Yrotation Zrotation
				JOINT RightFoot
				{
					OFFSET 4.081824 -37.707954 -15.979600
					CHANNELS 3 Xrotation Yrotation Zrotation
					JOINT RightToeBase
					{
						OFFSET -5.346400 -15.068900 20.645000
						CHANNELS 3 Xrotation Yrotation Zrotation
						JOINT RightToe_End
						{
							OFFSET -2.754700 0.931300 11.300900
							CHANNELS 3 Xrotation Yrotation Zrotation
							End Site
							{
								OFFSET 0 0 0
							}
						}
					}
				}
			}
		}
	}
	JOINT Spine_virtual
	{
		OFFSET 0.000000 0.000000 0.000000
		CHANNELS 3 Xrotation Yrotation Zrotation
		JOINT Spine
		{
			OFFSET -0.279200 12.230698 -2.892100
			CHANNELS 3 Xrotation Yrotation Zrotation
			JOINT Spine1
			{
				OFFSET -0.232667 10.192268 -1.242267
				CHANNELS 3 Xrotation Yrotation Zrotation
				JOINT Spine1_split
				{
					OFFSET -0.232667 10.192268 -1.242267
					CHANNELS 3 Xrotation Yrotation Zrotation
					JOINT Spine2
					{
						OFFSET -0.232667 10.192268 -1.242267
						CHANNELS 3 Xrotation Yrotation Zrotation
						JOINT Neck_virtual
						{
							OFFSET 0.000000 0.000000 0.000000
							CHANNELS 3 Xrotation Yrotation Zrotation
							JOINT Neck
							{
								OFFSET -0.418800 17.814194 8.416900
								CHANNELS 3 Xrotation Yrotation Zrotation
								JOINT Head
								{
									OFFSET 0.000000 7.031097 3.806800
									CHANNELS 3 Xrotation Yrotation Zrotation
									JOINT HeadTop_End
									{
										OFFSET 0.000000 24.646606 12.978600
										CHANNELS 3 Xrotation Yrotation Zrotation
										End Site
										{
											OFFSET 0 0 0
										}
									}
								}
							}
						}
						JOINT LeftShoulder_virtual
						{
							OFFSET 0.000000 0.000000 0.000000
							CHANNELS 3 Xrotation Yrotation Zrotation
							JOINT LeftShoulder
							{
								OFFSET 8.476499 7.247704 -3.868750
								CHANNELS 3 Xrotation Yrotation Zrotation
								JOINT LeftShoulder_split
								{
									OFFSET 8.476499 7.247704 -3.868750
									CHANNELS 3 Xrotation Yrotation Zrotation
									JOINT LeftArm
									{
										OFFSET 9.308998 -2.777710 0.208600
										CHANNELS 3 Xrotation Yrotation Zrotation
										JOINT LeftForeArm
										{
											OFFSET 29.972298 0.000000 0.000000
											CHANNELS 3 Xrotation Yrotation Zrotation
											JOINT LeftHand
											{
												OFFSET 26.026505 0.000000 0.000000
												CHANNELS 3 Xrotation Yrotation Zrotation
												End Site
												{
													OFFSET 0 0 0
												}
											}
										}
									}
								}
							}
						}
						JOINT RightShoulder_virtual
						{
							OFFSET 0.000000 0.000000 0.000000
							CHANNELS 3 Xrotation Yrotation Zrotation
							JOINT RightShoulder
							{
								OFFSET -7.570500 7.247704 -3.868750
								CHANNELS 3 Xrotation Yrotation Zrotation
								JOINT RightShoulder_split
								{
									OFFSET -7.570500 7.247704 -3.868750
									CHANNELS 3 Xrotation Yrotation Zrotation
									JOINT RightArm
									{
										OFFSET -9.308998 -2.777710 0.208500
										CHANNELS 3 Xrotation Yrotation Zrotation
										JOINT RightForeArm
										{
											OFFSET -29.972300 0.000000 0.000000
											CHANNELS 3 Xrotation Yrotation Zrotation
											JOINT RightHand
											{
												OFFSET -26.026505 0.000000 0.000000
												CHANNELS 3 Xrotation Yrotation Zrotation
												End Site
												{
													OFFSET 0 0 0
												}
											}
										}
									}
								}
							}
						}
					}
				}
			}
		}
	}
}
MOTION
Frames: 4
Frame Time: 0.03333333
0.121473 89.888222 -4.903942 0.000000 0.000000 0.000000 3.943832 6.510619 -0.725160 -11.006704 8.391462 8.090565 23.722379 0.608431 -2.573589 -17.173329 2.208334 -7.951733 -1.553779 0.377137 0.799830 0.000000 0.000000 0.000000 4.268815 5.227521 -1.151581 -4.598083 -5.261935 -10.504401 21.413427 -3.747351 11.884281 -12.699433 -17.606611 0.946311 -2.992485 0.417982 0.137332 0.000000 0.000000 0.000000 5.565192 2.757350 -2.027335 18.174887 -2.309809 -0.175331 0.139331 -0.101428 1.126137 1.184236 -0.662366 0.162316 0.000000 0.000000 0.000000 1.268494 -0.491049 0.430661 17.899503 2.972806 -0.671762 11.164928 2.244714 2.233076 0.000000 0.000000 0.000000 1.066132 0.054181 -0.060989 12.412333 -36.730920 -0.539038 1.980902 -1.655393 -3.260862 11.824820 17.361701 -47.101224 -1.283892 -36.917343 0.110655 0.000000 0.000000 0.000000 0.340381 -0.212970 0.690770 0.887865 -1.854493 7.493115 1.473173 6.235946 -1.369919 -0.272618 17.103364 36.718909 0.622917 15.334698 1.339972 0.000000 0.000000 0.000000 
0.185856 90.013649 -4.659050 0.000000 0.000000 0.000000 3.749503 6.533128 -0.625896 -10.540167 8.583760 7.924235 23.264828 0.672430 -2.498693 -17.257161 2.228358 -7.714502 -1.499967 0.385826 0.803399 0.000000 0.000000 0.000000 4.108358 5.222320 -1.058478 -4.278098 -5.207624 -10.571072 21.207978 -3.612169 11.804619 -12.501335 -17.645360 1.040918 -2.920206 0.405607 0.142213 0.000000 0.000000 0.000000 5.326192 2.904453 -1.881295 17.573126 -2.347726 -0.167576 0.188993 -0.132092 1.038483 1.242091 -0.718564 0.119595 0.000000 0.000000 0.000000 1.291186 -0.538282 0.335723 17.863363 2.220993 -0.392426 11.214780 -0.265710 3.374694 0.000000 0.000000 0.000000 1.143742 -0.009209 -0.138828 12.126603 -36.461291 -0.520811 1.978762 -1.338383 -3.075911 13.348566 18.041134 -47.365292 -1.325505 -36.541075 0.041533 0.000000 0.000000 0.000000 0.389493 -0.259155 0.649497 0.604713 -2.030812 7.079306 1.681881 6.315113 -1.211335 0.920073 16.358551 36.769053 0.684545 15.279128 1.227052 0.000000 0.000000 0.000000 
0.231719 90.087967 -4.514206 0.000000 0.000000 0.000000 3.535814 6.518064 -0.566962 -10.150811 8.673008 7.749305 22.896744 0.631437 -2.388655 -17.352905 2.208048 -7.516818 -1.554780 0.383709 0.811299 0.000000 0.000000 0.000000 3.922543 5.171555 -1.001894 -4.008700 -5.174907 -10.590855 21.105693 -3.488008 11.772028 -12.372680 -17.678191 1.098357 -2.883424 0.391750 0.146490 0.000000 0.000000 0.000000 5.083929 3.024858 -1.780906 17.066314 -2.302496 -0.154305 0.280000 -0.159113 1.021695 1.308925 -0.724533 0.081876 0.000000 0.000000 0.000000 1.303677 -0.571443 0.299078 17.715900 1.564026 -0.149133 11.200944 -2.346982 4.303755 0.000000 0.000000 0.000000 1.255584 -0.071449 -0.138041 11.849893 -35.979954 -0.476523 2.042014 -0.990493 -2.900757 14.357252 18.278735 -47.909344 -1.441817 -36.320706 -0.077582 0.000000 0.000000 0.000000 0.462614 -0.300799 0.661426 0.422019 -2.209647 6.818262 1.915462 6.539445 -1.104483 1.170238 15.779035 37.390757 0.671482 15.059884 1.161976 0.000000 0.000000 0.000000 
0.263899 90.101852 -4.435989 0.000000 0.000000 0.000000 3.296205 6.492009 -0.531911 -9.867927 8.609984 7.579690 22.708205 0.480269 -2.252115 -17.359902 2.143764 -7.380335 -1.610236 0.375588 0.800663 0.000000 0.000000 0.000000 3.690735 5.122716 -0.963530 -3.765792 -5.152534 -10.576364 21.113682 -3.399733 11.773234 -12.329366 -17.734892 1.106287 -2.887608 0.376857 0.145153 0.000000 0.000000 0.000000 4.824629 3.144960 -1.712623 16.670328 -2.181057 -0.135906 0.391698 -0.174612 1.066587 1.320281 -0.661834 0.011999 0.000000 0.000000 0.000000 1.291594 -0.584769 0.309183 17.511065 1.020121 0.021055 11.173016 -4.009668 5.058573 0.000000 0.000000 0.000000 1.371601 -0.124886 -0.081589 11.586319 -35.389642 -0.455670 2.044705 -0.598880 -2.780013 14.868799 18.083252 -48.579731 -1.654469 -36.003925 -0.244867 0.000000 0.000000 0.000000 0.534521 -0.326394 0.713592 0.351384 -2.365756 6.795286 2.133063 6.764928 -1.000548 0.619814 15.412779 38.528834 0.619023 14.627108 1.111981 0.000000 0.000000 0.000000 
